<svg xmlns="http://www.w3.org/2000/svg" viewBox="0 0 96 96" width="96" height="96"><defs></defs><g transform="matrix(1,0,0,1,0,0)">
<g>
	<g>
		<path d="M48,0 C74.48566933339268,0 96,21.51433066660733 96,48 C96,74.48566933339268 74.48566933339268,96 48,96 C21.51433066660733,96 0,74.48566933339268 0,48 C0,21.51433066660733 21.51433066660733,0 48,0 Z" fill="#030712"/>
	</g>
	<g>
		<path d="M57.3399251737038,80.23597006948141 C57.3399251737038,80.23597006948141 38.81079636557988,80.23597006948141 38.81079636557988,80.23597006948141 Q32.12934259754143,80.23597006948141 27.83858898984503,77.88214858364498 Q23.54783538214863,75.52832709780854 21.45857830037419,71.35141635489035 Q19.370924639230424,67.17450561197214 19.370924639230424,61.70684126135752 Q19.370924639230424,40.368519508284415 19.370924639230424,40.368519508284415 Q19.370924639230424,32.09166221272059 24.155531801175886,27.990112239444294 Q34.0277926242651,19.71325494388047 34.0277926242651,19.71325494388047 Q38.66007482629608,15.764029930518655 48.60769641902719,15.764029930518655 Q67.1368252271511,15.764029930518655 67.1368252271511,15.764029930518655 Q70.62907536076948,15.764029930518655 70.62907536076948,19.257883484767696 Q70.62907536076948,28.445483698557062 70.62907536076948,28.445483698557062 Q70.62907536076948,30.343933725280728 69.56600748262944,31.256280064136952 Q59.69374665954024,39.45777659005887 59.69374665954024,39.45777659005887 Q58.935328701229174,40.216194548369934 57.3399251737038,40.216194548369934 Q47.999999999999936,40.216194548369934 47.999999999999936,40.216194548369934 C47.999999999999936,40.216194548369934 47.999999999999936,53.049973276322824 47.999999999999936,53.049973276322824 Q47.999999999999936,54.6453768038482 48.986103687867384,55.291555318011746 Q49.973810796365505,55.93613041154462 51.87226082308918,55.93613041154462 Q67.1368252271511,55.93613041154462 67.1368252271511,55.93613041154462 Q70.62907536076948,55.93613041154462 70.62907536076948,59.42838054516298 Q70.62907536076948,68.46525921966855 70.62907536076948,68.46525921966855 Q70.62907536076948,70.36370924639222 69.56600748262944,71.27445216461776 Q59.69374665954024,79.47594869053968 59.69374665954024,79.47594869053968 Q58.935328701229174,80.23597006948141 57.3399251737038,80.23597006948141 Q57.3399251737038,80.23597006948141 57.3399251737038,80.23597006948141 ZM67.1368252271511,71.19909139497585 Q69.87065740245842,71.19909139497585 69.87065740245842,68.46525921966855 Q69.87065740245842,59.42838054516298 69.87065740245842,59.42838054516298 Q69.87065740245842,56.694548369855674 67.1368252271511,56.694548369855674 Q51.87226082308918,56.694548369855674 51.87226082308918,56.694548369855674 Q47.2399786210582,56.694548369855674 47.2399786210582,53.049973276322824 Q47.2399786210582,34.976215927311706 47.2399786210582,34.976215927311706 Q47.2399786210582,31.17931587386437 51.87226082308918,31.17931587386437 Q67.1368252271511,31.17931587386437 67.1368252271511,31.17931587386437 Q69.87065740245842,31.17931587386437 69.87065740245842,28.445483698557062 Q69.87065740245842,19.257883484767696 69.87065740245842,19.257883484767696 Q69.87065740245842,16.52405130946039 67.1368252271511,16.52405130946039 Q48.60769641902719,16.52405130946039 48.60769641902719,16.52405130946039 Q39.03848209513627,16.52405130946039 34.48156066274719,20.320951362907728 Q29.926242650988794,24.11785141635506 29.926242650988794,32.09166221272059 Q29.926242650988794,55.70844468198823 29.926242650988794,55.70844468198823 Q29.926242650988794,63.60529128808118 34.48156066274719,67.40219134152852 Q39.03848209513627,71.19909139497585 48.60769641902719,71.19909139497585 Q67.1368252271511,71.19909139497585 67.1368252271511,71.19909139497585 ZM62.9599144842329,64.36531266702293 C62.9599144842329,64.36531266702293 50.27846071619447,64.36531266702293 50.27846071619447,64.36531266702293 Q45.341528594334534,64.36531266702293 42.72153928380541,63.3776055585248 Q40.10315339390698,62.38989845002667 39.11544628540885,60.22688401924101 Q38.12773917691072,58.06226616782467 38.12773917691072,54.568412613575624 Q38.12773917691072,33.305451630144425 38.12773917691072,33.305451630144425 Q38.12773917691072,29.660876536611575 39.15232495991446,27.49786210582591 Q40.178514163548876,25.333244254409564 42.79850347407799,24.345537145911443 Q45.41849278460711,23.357830037413322 50.27846071619447,23.357830037413322 Q62.9599144842329,23.357830037413322 62.9599144842329,23.357830037413322 C62.9599144842329,23.357830037413322 62.9599144842329,24.11785141635506 62.9599144842329,24.11785141635506 C62.9599144842329,24.11785141635506 50.27846071619447,24.11785141635506 50.27846071619447,24.11785141635506 Q45.798503474077975,24.11785141635506 43.32923570283266,24.991715660074988 Q40.861571352218036,25.863976483164244 39.87386424371991,27.8762693746661 Q38.887760555852466,29.88856226616796 38.887760555852466,33.305451630144425 Q38.887760555852466,54.568412613575624 38.887760555852466,54.568412613575624 Q38.887760555852466,57.83458043826828 39.83698556921429,59.84687332977014 Q40.78621058257613,61.859166221272 43.253874933190765,62.733030464991934 Q45.7215392838054,63.60529128808118 50.27846071619447,63.60529128808118 Q62.9599144842329,63.60529128808118 62.9599144842329,63.60529128808118 C62.9599144842329,63.60529128808118 62.9599144842329,64.36531266702293 62.9599144842329,64.36531266702293 Z" fill="#7591f4"/>
	</g>
</g></g></svg>